<svg width="12" height="12" viewBox="0 0 12 12" fill="none" xmlns="http://www.w3.org/2000/svg">
<path fill-rule="evenodd" clip-rule="evenodd" d="M4.9 1.8738C3.07746 1.8738 1.6 3.35126 1.6 5.1738C1.6 6.99634 3.07746 8.4738 4.9 8.4738C6.72254 8.4738 8.2 6.99634 8.2 5.1738C8.2 3.35126 6.72254 1.8738 4.9 1.8738ZM0.5 5.1738C0.5 2.74375 2.46995 0.773804 4.9 0.773804C7.33005 0.773804 9.3 2.74375 9.3 5.1738C9.3 6.19059 8.95511 7.12683 8.37592 7.87191L11.3389 10.8349C11.5537 11.0497 11.5537 11.3979 11.3389 11.6127C11.1241 11.8275 10.7759 11.8275 10.5611 11.6127L7.5981 8.64973C6.85303 9.22891 5.91679 9.5738 4.9 9.5738C2.46995 9.5738 0.5 7.60386 0.5 5.1738Z" fill="#252529"/>
</svg>
